<mxfile host="Electron" modified="2024-02-05T11:45:24.190Z" agent="Mozilla/5.0 (Windows NT 10.0; Win64; x64) AppleWebKit/537.36 (KHTML, like Gecko) draw.io/22.0.2 Chrome/114.0.5735.289 Electron/25.8.4 Safari/537.36" etag="HoG0QmPyoNYBpstae0GF" version="22.0.2" type="device">
  <diagram name="Page-1" id="AWQeqwl5IBlZRqKL4Kw_">
    <mxGraphModel dx="1206" dy="816" grid="1" gridSize="10" guides="1" tooltips="1" connect="1" arrows="1" fold="1" page="1" pageScale="1" pageWidth="1169" pageHeight="827" math="0" shadow="0">
      <root>
        <mxCell id="0" />
        <mxCell id="1" parent="0" />
        <mxCell id="wIJuDzCxKmxPU-8-YRUT-7" style="edgeStyle=orthogonalEdgeStyle;rounded=0;orthogonalLoop=1;jettySize=auto;html=1;entryX=0;entryY=0.5;entryDx=0;entryDy=0;" parent="1" source="wIJuDzCxKmxPU-8-YRUT-1" target="wIJuDzCxKmxPU-8-YRUT-2" edge="1">
          <mxGeometry relative="1" as="geometry" />
        </mxCell>
        <mxCell id="wIJuDzCxKmxPU-8-YRUT-1" value="Open a new plugin session with json descriptor for writing&lt;br&gt;&lt;br&gt;Receive handle from plugin" style="rounded=1;whiteSpace=wrap;html=1;strokeWidth=3;" parent="1" vertex="1">
          <mxGeometry x="60" y="140.5" width="190" height="80" as="geometry" />
        </mxCell>
        <mxCell id="wIJuDzCxKmxPU-8-YRUT-6" style="edgeStyle=orthogonalEdgeStyle;rounded=0;orthogonalLoop=1;jettySize=auto;html=1;entryX=0;entryY=0.5;entryDx=0;entryDy=0;" parent="1" source="wIJuDzCxKmxPU-8-YRUT-2" target="wIJuDzCxKmxPU-8-YRUT-5" edge="1">
          <mxGeometry relative="1" as="geometry" />
        </mxCell>
        <mxCell id="wIJuDzCxKmxPU-8-YRUT-2" value="Write frames to plugin using handle,&lt;br&gt;frames can be one of:&lt;br&gt;&lt;br&gt;1) Video&lt;br&gt;2) Audio&lt;br&gt;3) Subtitle&lt;br&gt;4) Data&lt;br&gt;&lt;br&gt;All frames have an absolute index which is sequential and increasing to represent its time stamp" style="rounded=1;whiteSpace=wrap;html=1;strokeWidth=3;" parent="1" vertex="1">
          <mxGeometry x="360" y="91" width="260" height="179" as="geometry" />
        </mxCell>
        <mxCell id="wIJuDzCxKmxPU-8-YRUT-3" value="loop over life of stream" style="edgeStyle=orthogonalEdgeStyle;rounded=0;orthogonalLoop=1;jettySize=auto;html=1;entryX=0.25;entryY=1;entryDx=0;entryDy=0;shape=flexArrow;strokeWidth=2;" parent="1" source="wIJuDzCxKmxPU-8-YRUT-2" target="wIJuDzCxKmxPU-8-YRUT-2" edge="1">
          <mxGeometry relative="1" as="geometry">
            <Array as="points">
              <mxPoint x="560" y="360" />
              <mxPoint x="425" y="360" />
            </Array>
          </mxGeometry>
        </mxCell>
        <mxCell id="wIJuDzCxKmxPU-8-YRUT-5" value="Close stream" style="rounded=1;whiteSpace=wrap;html=1;strokeWidth=3;" parent="1" vertex="1">
          <mxGeometry x="740" y="150.5" width="120" height="60" as="geometry" />
        </mxCell>
        <mxCell id="wIJuDzCxKmxPU-8-YRUT-14" style="edgeStyle=orthogonalEdgeStyle;rounded=0;orthogonalLoop=1;jettySize=auto;html=1;entryX=0;entryY=0.5;entryDx=0;entryDy=0;" parent="1" source="wIJuDzCxKmxPU-8-YRUT-15" target="wIJuDzCxKmxPU-8-YRUT-17" edge="1">
          <mxGeometry relative="1" as="geometry" />
        </mxCell>
        <mxCell id="wIJuDzCxKmxPU-8-YRUT-15" value="Open a new plugin session with json descriptor for reading&lt;br&gt;&lt;br&gt;Receive handle from plugin" style="rounded=1;whiteSpace=wrap;html=1;strokeWidth=3;" parent="1" vertex="1">
          <mxGeometry x="60" y="449.5" width="190" height="80" as="geometry" />
        </mxCell>
        <mxCell id="wIJuDzCxKmxPU-8-YRUT-16" style="edgeStyle=orthogonalEdgeStyle;rounded=0;orthogonalLoop=1;jettySize=auto;html=1;entryX=0;entryY=0.5;entryDx=0;entryDy=0;" parent="1" source="wIJuDzCxKmxPU-8-YRUT-17" target="wIJuDzCxKmxPU-8-YRUT-19" edge="1">
          <mxGeometry relative="1" as="geometry" />
        </mxCell>
        <mxCell id="wIJuDzCxKmxPU-8-YRUT-17" value="Read frames from source session, &lt;br&gt;&lt;br&gt;poll for ready frames, &lt;br&gt;read content for each media tyoe&lt;br&gt;" style="rounded=1;whiteSpace=wrap;html=1;strokeWidth=3;" parent="1" vertex="1">
          <mxGeometry x="360" y="400" width="260" height="179" as="geometry" />
        </mxCell>
        <mxCell id="wIJuDzCxKmxPU-8-YRUT-18" value="loop over life of stream" style="edgeStyle=orthogonalEdgeStyle;rounded=0;orthogonalLoop=1;jettySize=auto;html=1;entryX=0.25;entryY=1;entryDx=0;entryDy=0;shape=flexArrow;strokeWidth=2;" parent="1" source="wIJuDzCxKmxPU-8-YRUT-17" target="wIJuDzCxKmxPU-8-YRUT-17" edge="1">
          <mxGeometry relative="1" as="geometry">
            <Array as="points">
              <mxPoint x="560" y="669" />
              <mxPoint x="425" y="669" />
            </Array>
          </mxGeometry>
        </mxCell>
        <mxCell id="wIJuDzCxKmxPU-8-YRUT-19" value="Close stream" style="rounded=1;whiteSpace=wrap;html=1;strokeWidth=3;" parent="1" vertex="1">
          <mxGeometry x="740" y="459.5" width="120" height="60" as="geometry" />
        </mxCell>
      </root>
    </mxGraphModel>
  </diagram>
</mxfile>
